<svg width="241" height="357" viewBox="0 0 241 357" fill="none" xmlns="http://www.w3.org/2000/svg">
<path d="M240.129 52.0534C240.3 44.3719 238.112 36.8226 233.859 30.4234C229.859 24.1334 224.099 18.7634 217.149 16.0434C211.204 13.7001 204.654 13.3794 198.508 15.1308C192.363 16.8821 186.965 20.6082 183.149 25.7334C180.964 19.9646 176.996 15.0429 171.822 11.6836C166.648 8.32425 160.538 6.70228 154.379 7.05337C146.919 7.46337 139.809 10.7734 134.009 15.4834C127.959 20.2206 123.511 26.7035 121.269 34.0534C118.689 43.2534 118.849 53.8034 122.419 62.6734C126.179 72.0334 133.419 80.2534 141.069 86.7634C154.069 97.7634 171.179 111.563 171.179 111.563C171.179 111.563 189.069 102.183 204.799 95.8434C214.159 92.0734 223.559 86.5134 230.059 78.8434C236.269 71.5134 239.699 61.5534 240.129 52.0534Z" fill="#E277CD"/>
<path d="M110.218 335.301C89.0696 319.438 84.481 290.316 85.5186 264.181C85.6959 259.808 85.24 255.202 87.2856 251.399C89.3313 247.596 93.8898 245.006 97.5816 246.876C100.648 248.434 101.965 252.175 103.643 255.356C105.907 259.538 109.246 262.959 113.275 265.225C115.892 266.683 119.149 267.592 121.757 266.113C125.345 264.059 125.81 258.861 125.824 254.523C125.838 246.412 125.859 238.303 125.889 230.196C125.891 225.855 125.919 221.413 127.234 217.308C128.548 213.203 131.402 209.399 135.329 208.28C139.257 207.16 144.066 209.578 144.867 213.835C145.004 215.641 145.026 217.455 144.934 219.264C145.028 221.063 145.812 223.07 147.438 223.585C149.064 224.099 150.73 222.894 151.962 221.633C156.249 217.289 159.181 211.667 161.914 206.071C164.647 200.474 167.355 194.776 171.21 190.011C175.065 185.246 180.463 181.527 186.362 181.223C192.262 180.92 198.501 184.824 199.945 190.94C201.388 197.057 197.954 203.24 194.274 208.175C188.751 215.475 182.256 221.895 174.992 227.236C173.575 228.038 172.443 229.302 171.766 230.84C170.838 233.729 173.422 236.625 176.125 237.593C179.178 238.701 182.515 238.389 185.714 238.821C188.912 239.254 192.4 240.715 193.581 243.984C195.233 248.429 191.671 253.047 188.184 256.063C181.205 262.104 173.289 266.831 164.786 270.035C161.751 271.177 158.559 272.18 156.094 274.404C153.63 276.628 152.127 280.517 153.579 283.579C155.03 286.641 158.808 287.67 161.988 287.07C165.168 286.469 168.012 284.718 171.051 283.509C176.739 281.32 184.023 281.773 187.609 286.982C189.969 290.355 190.131 295.108 188.899 299.141C187.482 303.105 185.329 306.73 182.567 309.805C173.517 321.084 161.786 329.623 148.577 334.547C135.418 339.233 123.252 340.426 110.261 335.286" fill="#EC87CF" fill-opacity="0.53"/>
<path d="M116.73 318.966C120.965 304.762 125.966 290.825 131.707 277.221C133.209 273.589 134.711 269.957 136.159 266.485C137.608 263.013 139.096 259.485 140.713 256.156C143.859 249.78 147.332 243.588 151.117 237.611C154.697 231.862 158.281 226.601 161.667 221.663C165.054 216.725 168.328 212.228 171.503 208.218C176.397 201.9 181.759 196.001 187.538 190.577C189.588 188.669 191.222 187.238 192.338 186.283L193.615 185.197C193.753 185.063 193.908 184.948 194.074 184.854C193.952 185.008 193.814 185.145 193.662 185.265L192.435 186.405C191.336 187.446 189.756 188.866 187.735 190.809C182.039 196.305 176.738 202.241 171.876 208.567C168.779 212.572 165.561 217.099 162.184 222.053C158.806 227.007 155.261 232.265 151.705 238.021C147.956 243.97 144.517 250.13 141.402 256.473C139.791 259.777 138.394 263.25 136.87 266.767C135.346 270.285 133.931 273.875 132.421 277.491C126.689 291.066 121.684 304.971 117.43 319.138" fill="#2D2E4A"/>
<path d="M140.943 256.14C140.751 255.539 140.621 254.917 140.556 254.286C140.351 253.078 140.103 251.331 139.832 249.171C139.282 244.836 138.719 238.834 138.123 232.213C137.526 225.592 136.879 219.62 136.271 215.309C135.973 213.155 135.722 211.42 135.529 210.216C135.386 209.599 135.314 208.965 135.316 208.33C135.541 208.917 135.708 209.526 135.815 210.148C136.102 211.339 136.441 213.031 136.807 215.217C137.554 219.487 138.278 225.508 138.908 232.151C139.537 238.795 139.988 244.63 140.398 249.115C140.587 251.143 140.727 252.86 140.887 254.245C140.967 254.873 140.986 255.508 140.943 256.14Z" fill="#2D2E4A"/>
<path d="M193.942 246.168C193.25 246.321 192.545 246.407 191.838 246.425C190.523 246.553 188.514 246.687 186.081 246.972C181.233 247.479 174.553 248.427 167.251 249.754C159.949 251.081 153.348 252.728 148.638 253.95C146.247 254.626 144.361 255.133 143.048 255.505C142.373 255.741 141.681 255.916 140.978 256.028C141.608 255.692 142.269 255.426 142.95 255.234C144.25 254.763 146.132 254.12 148.538 253.435C153.236 252.061 159.826 250.356 167.174 248.948C173.438 247.729 179.757 246.851 186.107 246.316C188.544 246.114 190.522 246.052 191.886 246.033C192.574 246.011 193.262 246.056 193.942 246.168Z" fill="#2D2E4A"/>
<path d="M117.404 317.939C117.404 317.939 117.266 317.724 117.052 317.258L116.157 315.232C115.398 313.476 114.35 310.893 113.105 307.673C110.606 301.271 107.416 292.293 104.014 282.335C100.612 272.376 97.5029 263.381 95.0978 256.91L92.2733 249.267L91.5237 247.174C91.4241 246.933 91.3507 246.681 91.3047 246.422C91.4531 246.637 91.5744 246.872 91.6658 247.12C91.9002 247.66 92.2047 248.327 92.5488 249.142C93.319 250.902 94.3671 253.484 95.6152 256.692C98.1114 263.107 101.301 272.085 104.704 282.043C108.106 292.001 111.203 300.994 113.62 307.467L116.444 315.111C116.746 315.94 116.996 316.62 117.197 317.191C117.296 317.43 117.366 317.681 117.404 317.939Z" fill="#2D2E4A"/>
<path d="M187.914 294.668C187.692 294.796 187.457 294.893 187.212 294.957L185.144 295.724L177.591 298.237C171.217 300.354 162.447 303.416 152.763 306.746C143.079 310.076 134.262 313.071 127.845 315.054C124.632 316.038 122.023 316.814 120.218 317.303L118.139 317.864C117.897 317.953 117.642 317.999 117.386 318.002C117.607 317.875 117.843 317.778 118.087 317.714L120.139 317.01L127.692 314.497C134.066 312.38 142.848 309.321 152.532 305.991C162.216 302.661 171.021 299.663 177.435 297.693C180.651 296.696 183.26 295.92 185.065 295.431L187.156 294.873C187.397 294.765 187.653 294.696 187.914 294.668Z" fill="#2D2E4A"/>
<path d="M12.606 240.121C12.0781 239.395 11.3753 238.841 10.5921 238.532C9.83336 238.201 9.02362 238.125 8.27455 238.315C7.88219 238.432 7.52413 238.637 7.2219 238.918C6.91967 239.199 6.67952 239.551 6.51591 239.951C6.32455 240.43 6.24804 240.964 6.29291 241.509C5.88677 241.241 5.4413 241.066 4.98702 240.996C4.56731 240.938 4.15007 240.972 3.76025 241.095C3.37042 241.219 3.01601 241.431 2.71818 241.717C2.17334 242.283 1.82407 243.041 1.7196 243.884C1.57809 244.734 1.6866 245.64 2.03035 246.477C2.48298 247.537 3.22305 248.445 4.14075 249.066C5.13407 249.66 6.21864 250 7.30389 250.057C9.09278 250.202 11.4171 250.34 11.4171 250.34C11.4171 250.34 12.1596 248.256 12.9475 246.605C13.4524 245.618 13.7195 244.489 13.7262 243.31C13.6674 242.179 13.2743 241.06 12.606 240.121Z" fill="#EC87CF"/>
<path d="M128.347 10.4487C128.881 9.09078 129.163 7.74908 129.154 6.60388C129.179 5.45826 128.915 4.55029 128.4 4.00519C128.112 3.73922 127.747 3.6082 127.325 3.62002C126.904 3.63183 126.436 3.78622 125.948 4.07392C125.368 4.42188 124.778 4.95003 124.228 5.61306C124.336 4.89666 124.33 4.24602 124.211 3.70571C124.094 3.21351 123.883 2.82824 123.588 2.57293C123.294 2.31762 122.923 2.1975 122.499 2.21974C121.678 2.30739 120.739 2.81136 119.815 3.66062C118.867 4.48063 117.968 5.61693 117.24 6.91451C116.325 8.575 115.69 10.3552 115.43 11.9909C115.23 13.6721 115.335 15.158 115.734 16.3243C116.339 18.3048 117.179 20.8204 117.179 20.8204C117.179 20.8204 119.667 19.2135 121.725 18.142C122.968 17.5369 124.26 16.5279 125.493 15.1992C126.649 13.8578 127.65 12.1911 128.347 10.4487Z" fill="#EC87CF"/>
<path d="M115.315 32.1865C114.814 29.8843 113.621 27.7905 111.895 26.1865C110.264 24.5572 108.168 23.4741 105.895 23.0865C104.683 22.9242 103.45 23.0089 102.271 23.3354C101.092 23.6619 99.9913 24.2236 99.0351 24.9865C97.9038 25.9027 97.0116 27.0797 96.4351 28.4165C95.6787 27.3294 94.6963 26.4186 93.5551 25.7465C92.4929 25.1401 91.3194 24.7541 90.1046 24.6115C88.8899 24.4689 87.6589 24.5726 86.4851 24.9165C84.2848 25.6434 82.3681 27.0425 81.0051 28.9165C79.5324 30.7666 78.6663 33.026 78.5251 35.3865C78.3935 38.3945 79.2352 41.3647 80.9251 43.8565C82.8553 46.3675 85.3583 48.3802 88.2251 49.7265C92.8851 52.0665 99.0051 54.9865 99.0051 54.9865C99.0051 54.9865 103.685 50.8965 107.935 47.8765C110.566 46.1114 112.737 43.742 114.265 40.9665C115.554 38.2301 115.923 35.1498 115.315 32.1865Z" fill="#EC87CF"/>
<ellipse cx="91.5" cy="354" rx="89.5" ry="3" fill="#ADADAD" fill-opacity="0.64"/>
<path d="M128.162 286.659L85.7079 297.937C73.2695 298.653 45.1523 300.417 45.1523 300.417L54.1538 351.717H86.0024H121.714C121.714 351.717 132.744 336.172 133.882 316.95C134.523 306.565 132.563 296.185 128.162 286.659Z" fill="#263238"/>
<path d="M81.2138 307.008C81.0788 307.125 80.9306 307.226 80.7719 307.311L79.4626 308.089C78.3334 308.788 76.6722 309.775 74.7492 311.151C72.4645 312.712 70.4563 314.609 68.8 316.771C67.8519 318.057 67.1203 319.476 66.6315 320.976C66.1292 322.601 65.8029 324.27 65.6577 325.958C65.0931 332.915 64.5776 339.219 64.2011 343.836C63.9966 346.082 63.8329 347.924 63.7183 349.276C63.6529 349.883 63.6038 350.372 63.5628 350.745C63.554 350.919 63.5265 351.091 63.481 351.258C63.4595 351.085 63.4595 350.911 63.481 350.738C63.481 350.365 63.5219 349.875 63.5465 349.261C63.6365 347.932 63.7511 346.09 63.8984 343.82C64.2257 339.242 64.643 332.938 65.2322 325.943C65.384 324.231 65.7185 322.538 66.2306 320.89C66.7357 319.355 67.4923 317.904 68.4727 316.592C70.1691 314.409 72.2282 312.503 74.5691 310.949C76.5331 309.597 78.2188 308.617 79.3808 307.988C79.9618 307.661 80.4119 307.412 80.7228 307.249C80.877 307.153 81.0416 307.072 81.2138 307.008Z" fill="#455A64"/>
<path d="M113.652 350.668C113.733 350.484 113.826 350.304 113.931 350.131L114.79 348.631C114.986 348.305 115.191 347.947 115.42 347.559C115.649 347.17 115.862 346.719 116.107 346.253C116.582 345.305 117.187 344.255 117.744 343.027C118.014 342.421 118.3 341.784 118.603 341.123C118.906 340.462 119.151 339.747 119.421 339.024C120.019 337.578 120.518 335.985 121.058 334.322C123.291 327.037 124.239 319.452 123.865 311.874C123.742 310.133 123.66 308.477 123.423 306.938C123.317 306.161 123.251 305.384 123.12 304.715C122.989 304.047 122.867 303.324 122.744 302.671C122.539 301.365 122.212 300.207 121.975 299.181C121.844 298.676 121.745 298.194 121.623 297.759C121.5 297.323 121.377 296.935 121.271 296.577C121.074 295.893 120.911 295.349 120.796 294.937C120.73 294.748 120.683 294.552 120.657 294.354C120.741 294.534 120.815 294.718 120.878 294.906L121.426 296.531C121.549 296.888 121.68 297.308 121.819 297.704C121.958 298.101 122.065 298.621 122.204 299.127C122.466 300.153 122.817 301.311 123.022 302.617C123.145 303.27 123.284 303.954 123.423 304.661C123.562 305.368 123.636 306.122 123.75 306.899C124.004 308.454 124.094 310.11 124.233 311.858C124.417 315.663 124.285 319.476 123.84 323.261C123.335 327.038 122.514 330.77 121.385 334.423C120.829 336.102 120.322 337.695 119.7 339.141C119.397 339.864 119.151 340.579 118.832 341.239L117.94 343.144C117.4 344.372 116.778 345.413 116.304 346.354C116.05 346.82 115.821 347.263 115.584 347.652L114.921 348.709L113.988 350.17C113.897 350.348 113.784 350.515 113.652 350.668Z" fill="#455A64"/>
<path d="M63.0153 317.89C62.4781 317.734 61.9681 317.503 61.5015 317.206C59.1655 315.934 56.972 314.439 54.955 312.745C54.5109 312.42 54.1194 312.035 53.793 311.602C53.8748 311.516 55.806 313.079 58.351 314.804C60.8959 316.53 63.0726 317.812 63.0153 317.89Z" fill="#455A64"/>
<path d="M46.4938 230.524C46.4938 230.524 28.0081 247.073 23.3846 258.172C18.7612 269.272 14.3832 280.317 18.8921 292.372C22.6482 302.298 31.8051 314.804 46.1746 317.944C55.5197 319.996 130.461 289.52 130.461 289.52C130.461 289.52 131.197 280.589 126.811 273.492C122.957 267.274 123.129 197.786 123.227 181.113C123.231 180.006 122.956 178.914 122.423 177.929C121.89 176.945 121.116 176.096 120.166 175.455L107.638 167.029L81.943 167.651C81.943 167.651 61.8126 188.94 58.1629 192.174C54.5132 195.407 30.6676 213.417 46.4938 230.524Z" fill="#2D2E4A"/>
<path d="M87.9412 237.971C87.9412 237.971 87.8266 238.017 87.5975 238.072C87.3683 238.126 87.0246 238.204 86.5746 238.266C85.3135 238.453 84.0372 238.531 82.7612 238.499C78.5038 238.41 74.3647 237.152 70.8445 234.876C67.3242 232.6 64.5736 229.404 62.9254 225.674C62.4193 224.56 62.0274 223.401 61.7552 222.215C61.6488 221.796 61.6079 221.438 61.567 221.244C61.5454 221.128 61.5454 221.01 61.567 220.894C61.567 220.894 61.7061 221.353 61.9434 222.176C62.2749 223.335 62.7046 224.465 63.2281 225.558C64.919 229.193 67.6483 232.305 71.1065 234.541C74.5648 236.778 78.6137 238.05 82.794 238.212C84.0577 238.271 85.3245 238.237 86.5828 238.111C87.0321 238.037 87.4858 237.991 87.9412 237.971Z" fill="#263238"/>
<g opacity="0.3">
<path d="M65.8789 230.361C68.6039 234.885 72.2863 239.144 77.3353 241.243C82.3843 243.342 88.9226 242.712 92.4659 238.725C92.4659 238.725 84.6019 238.585 79.9048 238.08C75.2077 237.574 68.2193 234.271 65.8953 230.361" fill="black"/>
</g>
<path d="M28.733 289.846C28.733 289.846 28.4466 290.25 27.6938 290.39C27.1983 290.499 26.6796 290.462 26.2068 290.284C25.734 290.106 25.3294 289.796 25.0469 289.394C24.7644 288.992 24.6173 288.519 24.6253 288.036C24.6333 287.553 24.7959 287.083 25.0916 286.69C25.5253 286.084 26.0163 285.952 26.0244 285.991C26.0326 286.03 25.6644 286.263 25.3534 286.838C25.1454 287.197 25.0404 287.601 25.049 288.01C25.0576 288.419 25.1795 288.819 25.4025 289.17C25.6619 289.496 26.0049 289.754 26.3988 289.918C26.7927 290.083 27.2244 290.149 27.6529 290.11C28.0184 290.044 28.3792 289.956 28.733 289.846Z" fill="#263238"/>
<path d="M33.2533 230.897C33.2533 230.602 34.0716 227.788 36.1501 226.902C38.2286 226.016 43.9159 226.622 43.9159 226.622L47.9174 231.675C47.9174 231.675 47.451 233.828 44.145 233.268C44.145 233.268 50.4705 237.652 50.2332 239.634C50.1731 240.205 49.9903 240.758 49.6962 241.26C49.402 241.761 49.0027 242.2 48.523 242.549C48.523 242.549 51.4852 244.173 50.5114 246.171C50.275 246.718 49.8413 247.167 49.2879 247.437C48.7346 247.708 48.0978 247.783 47.4919 247.648C47.4919 247.648 47.9583 250.804 44.3496 250.112C40.7408 249.42 35.4382 247.049 35.4382 247.049C35.36 247.295 35.3384 247.553 35.3748 247.808C35.4112 248.062 35.5048 248.306 35.6492 248.522C35.7936 248.739 35.9854 248.924 36.2116 249.064C36.4378 249.204 36.6931 249.296 36.9602 249.334C38.2507 249.609 39.4506 250.18 40.4544 250.998C40.4544 250.998 40.6753 253.524 38.2941 253.166C35.9128 252.809 33.6788 252.972 31.5348 251.542C29.3908 250.112 27.3369 249.583 27.7951 247.531C28.2534 245.479 28.6134 245.114 28.6134 245.114C28.6134 245.114 27.3287 242.378 28.5643 241.01L29.8 239.634C29.8 239.634 28.2206 236.96 29.669 235.421C31.1175 233.882 33.0078 232.172 33.0078 232.172L33.2533 230.897Z" fill="#C78976"/>
<path d="M48.553 242.495C47.8788 242.202 47.2303 241.859 46.6136 241.468C45.4352 240.8 43.815 239.914 41.9983 238.903C40.1817 237.893 38.5205 237.077 37.3176 236.463C36.6446 236.166 36.001 235.812 35.3945 235.406C36.1054 235.597 36.7936 235.858 37.4485 236.183C38.6923 236.735 40.3862 237.551 42.2111 238.515C44.0359 239.479 45.6398 240.458 46.7772 241.189C47.4179 241.561 48.0134 241.999 48.553 242.495Z" fill="#BF654E"/>
<path d="M47.972 247.71C45.6254 246.753 43.3337 245.679 41.1064 244.492C38.8187 243.417 36.595 242.224 34.4453 240.917C36.7965 241.864 39.0888 242.939 41.311 244.135C43.6006 245.206 45.8246 246.4 47.972 247.71Z" fill="#BF654E"/>
<path d="M44.5066 233.618C43.214 233.18 41.9719 232.617 40.7996 231.939C39.5607 231.376 38.3846 230.697 37.2891 229.91C38.5846 230.345 39.8296 230.905 41.0042 231.582C42.2431 232.143 43.4169 232.825 44.5066 233.618Z" fill="#BF654E"/>
<path d="M116.64 91.2602C117.246 88.8662 116.886 86.0524 114.897 84.4046C113.154 82.9589 110.527 82.7412 108.236 83.2465C106.639 83.5749 105.148 84.2603 103.885 85.2457C102.623 86.2312 101.626 87.4883 100.978 88.9128C100.388 90.341 100.271 91.9061 100.642 93.3991C101.014 94.8921 101.856 96.242 103.056 97.2685L109.439 98.6987C111.137 98.4233 112.709 97.6713 113.954 96.5395C115.198 95.4077 116.056 93.9479 116.419 92.3484C116.485 91.8975 116.583 91.5089 116.64 91.2602Z" fill="#263238"/>
<path d="M112.778 98.1779C112.288 97.7867 111.693 97.5335 111.059 97.447C110.426 97.3604 109.78 97.444 109.194 97.6882C109.361 97.172 109.376 96.6218 109.236 96.0982C109.096 95.5746 108.807 95.0978 108.4 94.7202C107.993 94.3426 107.485 94.0789 106.93 93.958C106.376 93.8371 105.797 93.8638 105.258 94.035C104.701 94.2138 104.128 94.5403 103.58 94.3615C102.762 94.0817 102.762 92.9779 102.434 92.1929C102.297 91.8615 102.076 91.567 101.791 91.3349C101.507 91.1028 101.167 90.9401 100.801 90.861C100.435 90.7818 100.055 90.7884 99.6924 90.8804C99.33 90.9724 98.9966 91.1469 98.7212 91.3888C98.4458 91.6308 98.2367 91.9328 98.1119 92.2688C97.9871 92.6048 97.9504 92.9647 98.0051 93.3172C98.0597 93.6697 98.2039 94.0042 98.4254 94.2918C98.6468 94.5794 98.9386 94.8114 99.2757 94.9678C102.803 95.745 106.387 98.0224 109.251 100.137C109.808 100.609 110.441 100.994 111.125 101.279C111.471 101.418 111.85 101.464 112.222 101.41C112.593 101.357 112.941 101.207 113.228 100.976C114.022 100.253 113.629 98.8697 112.778 98.1779Z" fill="#2D2E4A"/>
<path d="M69.5117 169.594C69.5117 169.524 70.33 169.392 71.4348 168.817C72.9317 168.131 74.19 167.052 75.0603 165.707C75.9307 164.362 76.3764 162.809 76.3446 161.23C76.3446 160.018 76.0991 159.287 76.1646 159.264C76.2301 159.241 76.2792 159.435 76.3855 159.769C76.5265 160.244 76.6143 160.731 76.6474 161.223C76.7599 162.87 76.3315 164.51 75.4213 165.916C74.5111 167.322 73.1639 168.425 71.5657 169.073C71.0896 169.275 70.5895 169.421 70.0764 169.508C69.8962 169.573 69.7041 169.602 69.5117 169.594Z" fill="#263238"/>
<path d="M85.9949 95.8849C83.4126 94.6357 80.6578 93.7382 77.8118 93.2189C75.095 92.667 72.0836 92.9702 69.8906 94.6335C67.0428 96.8254 66.4209 100.696 64.2606 103.51C62.8613 105.337 60.8564 106.619 59.0807 108.135C57.3049 109.65 55.6356 111.485 55.3246 113.723C55.0627 115.558 55.742 117.4 55.611 119.242C55.2837 123.774 50.1938 127.427 50.9957 131.912C51.5931 135.207 55.2019 137.353 56.1266 140.586C56.683 142.521 56.1838 144.589 56.4621 146.579C56.9412 149.154 58.3967 151.474 60.5536 153.1C62.691 154.708 65.0719 156 67.6157 156.932C70.4961 158.108 73.4366 159.145 76.4371 160.041C78.2128 160.57 80.4304 160.951 81.6743 159.637C82.5498 158.72 82.5417 157.344 82.4926 156.108C81.4288 135.946 80.5532 115.41 85.9949 95.8849Z" fill="#263238"/>
<path d="M107.649 169.539L107.861 113.055C107.826 111.897 107.334 110.793 106.482 109.964C105.63 109.135 104.481 108.64 103.262 108.578L85.7996 101.893L81.2335 102.375C70.9473 102.375 63.8034 113.102 63.6971 121.03C63.5743 129.813 63.7953 140.547 65.2355 147.037C68.1241 160.072 78.8194 161.246 78.8194 161.246C78.8194 161.246 78.6967 164.806 78.5821 169.174L70.89 192.593L107.649 169.539Z" fill="#C78976"/>
<path d="M69.1133 128.484C69.1344 128.923 69.3336 129.337 69.6692 129.64C70.0048 129.943 70.4507 130.111 70.9136 130.108C71.1405 130.115 71.3664 130.078 71.5781 130C71.7898 129.922 71.9829 129.804 72.1461 129.654C72.3092 129.504 72.4392 129.325 72.5283 129.127C72.6174 128.928 72.6638 128.715 72.6648 128.499C72.6456 128.06 72.4471 127.644 72.111 127.341C71.775 127.038 71.3279 126.87 70.8645 126.875C70.6378 126.87 70.4124 126.907 70.2012 126.986C69.99 127.064 69.7974 127.182 69.6344 127.331C69.4715 127.481 69.3415 127.66 69.252 127.858C69.1625 128.056 69.1154 128.269 69.1133 128.484Z" fill="#263238"/>
<path d="M66.2641 125.173C66.4523 125.468 68.1053 124.559 70.1593 124.877C72.2132 125.196 73.5389 126.51 73.8089 126.276C73.9399 126.175 73.8089 125.662 73.2116 125.056C72.4595 124.286 71.4556 123.779 70.3625 123.618C69.2693 123.457 68.151 123.652 67.1888 124.17C66.4687 124.59 66.1659 125.033 66.2641 125.173Z" fill="#263238"/>
<path d="M79.0027 139.7C77.9783 139.451 76.926 139.32 75.8686 139.311C75.3776 139.311 74.9111 139.218 74.8129 138.907C74.7572 138.445 74.8454 137.977 75.0666 137.562C75.4703 136.412 75.8904 135.212 76.3268 133.964C78.0616 128.849 79.2973 124.636 79.0763 124.582C78.8554 124.528 77.2761 128.616 75.5331 133.73C75.1157 134.99 74.7147 136.194 74.3383 137.345C74.0623 137.917 74.0072 138.564 74.1829 139.171C74.2606 139.33 74.3742 139.47 74.5157 139.581C74.6572 139.693 74.823 139.773 75.0012 139.816C75.2706 139.867 75.5449 139.891 75.8195 139.886C76.8846 139.948 77.9537 139.886 79.0027 139.7Z" fill="#263238"/>
<path d="M78.8166 161.23C85.3365 161.013 91.665 159.081 97.0977 155.65C97.0977 155.65 92.646 164.977 78.7266 164.425L78.8166 161.23Z" fill="#BF654E"/>
<path d="M80.0458 144.029C80.3862 143.578 80.8421 143.216 81.3703 142.978C81.8986 142.74 82.4819 142.634 83.0654 142.669C83.488 142.687 83.9026 142.785 84.2848 142.957C84.6671 143.129 85.0092 143.372 85.2912 143.672C85.5622 143.962 85.7328 144.324 85.7796 144.709C85.8264 145.094 85.7473 145.484 85.553 145.825C85.2654 146.163 84.8785 146.412 84.4413 146.541C84.0042 146.67 83.5367 146.672 83.0981 146.548C82.18 146.289 81.3258 145.858 80.5859 145.281C80.3629 145.145 80.1686 144.971 80.0131 144.768C79.9434 144.667 79.9063 144.55 79.9062 144.43C79.9063 144.309 79.9434 144.192 80.0131 144.092" fill="#BF654E"/>
<path d="M84.6939 140.672C84.3748 140.672 84.4812 142.638 82.7791 144.123C81.077 145.607 78.8594 145.491 78.8594 145.763C78.8594 145.887 79.3667 146.128 80.3078 146.105C81.5219 146.062 82.6812 145.613 83.581 144.838C84.4479 144.095 84.9762 143.061 85.054 141.954C85.0867 141.146 84.8331 140.672 84.6939 140.672Z" fill="#263238"/>
<path d="M66.4367 119.537C66.8377 119.926 68.2861 119.429 70.0701 119.328C71.854 119.226 73.3433 119.444 73.687 119.001C73.8261 118.783 73.5724 118.379 72.8687 118.022C71.9422 117.582 70.9051 117.396 69.8736 117.485C68.8458 117.542 67.857 117.88 67.0259 118.457C66.4449 118.908 66.2567 119.343 66.4367 119.537Z" fill="#263238"/>
<path d="M91.2453 128.235C91.2544 128.675 91.0824 129.1 90.766 129.421C90.4496 129.742 90.0138 129.933 89.5514 129.953C89.3263 129.973 89.0991 129.95 88.8834 129.886C88.6676 129.821 88.4677 129.716 88.2953 129.577C88.1229 129.438 87.9817 129.268 87.8798 129.076C87.7779 128.884 87.7174 128.675 87.7021 128.461C87.6888 128.238 87.722 128.016 87.7997 127.806C87.8774 127.596 87.9981 127.403 88.1548 127.237C88.3115 127.072 88.5011 126.937 88.7127 126.842C88.9243 126.746 89.1538 126.692 89.3878 126.681C89.6186 126.66 89.8513 126.685 90.0717 126.753C90.2921 126.822 90.4955 126.932 90.6695 127.077C90.8434 127.223 90.9842 127.401 91.0832 127.6C91.1822 127.799 91.2374 128.015 91.2453 128.235Z" fill="#263238"/>
<path d="M93.6269 118.387C93.2014 118.807 91.4993 118.387 89.4617 118.387C87.4241 118.387 85.7057 118.714 85.3047 118.286C85.1329 118.076 85.3947 117.656 86.123 117.26C87.1665 116.758 88.3255 116.513 89.4945 116.545C90.6559 116.533 91.8017 116.8 92.825 117.322C93.5697 117.765 93.8151 118.185 93.6269 118.387Z" fill="#263238"/>
<path d="M86.8594 101.209C93.7741 110.148 101.139 120.253 108.291 129.005C109.527 124.636 110.689 118.037 109.829 113.583C109.05 109.067 106.544 104.982 102.792 102.111C98.9949 99.3671 92.2357 98.7997 87.8168 100.486" fill="#263238"/>
<path d="M105.099 135.231C105.05 134.251 106.122 131.888 107.129 131.694C109.829 131.158 114.739 131.134 115.132 137.687C115.664 146.641 106.081 145.304 106.057 145.048C106.032 144.791 105.271 138.643 105.099 135.231Z" fill="#C78976"/>
<path d="M108.734 141.534C108.775 141.534 108.906 141.635 109.193 141.736C109.592 141.875 110.032 141.861 110.42 141.698C111.394 141.293 112.147 139.747 112.057 138.13C112.037 137.361 111.836 136.607 111.467 135.922C111.361 135.647 111.187 135.401 110.959 135.203C110.731 135.006 110.456 134.863 110.158 134.788C109.967 134.747 109.766 134.774 109.593 134.862C109.421 134.951 109.287 135.095 109.217 135.269C109.103 135.526 109.217 135.705 109.127 135.72C109.037 135.736 108.914 135.58 108.972 135.207C109.009 134.982 109.127 134.776 109.307 134.624C109.429 134.525 109.571 134.449 109.724 134.402C109.877 134.356 110.039 134.339 110.199 134.352C110.59 134.404 110.961 134.549 111.276 134.775C111.591 135.001 111.84 135.3 111.999 135.643C112.445 136.399 112.692 137.247 112.719 138.114C112.769 139.918 111.901 141.659 110.551 142.109C110.303 142.193 110.037 142.223 109.775 142.196C109.513 142.169 109.261 142.087 109.037 141.954C108.767 141.752 108.702 141.55 108.734 141.534Z" fill="#BF654E"/>
<path d="M83.8515 98.6987C78.0497 99.1262 71.2659 100.828 67.6489 105.158C64.032 109.487 61.9617 114.835 60.7342 120.245C59.6965 125.415 59.0185 130.644 58.7048 135.899C58.4132 138.289 58.383 140.701 58.6148 143.097C58.8549 145.507 59.8788 147.786 61.5443 149.618C60.5051 147.496 62.7227 143.913 62.5099 140.687L63.942 135.316C63.7047 131.049 65.4395 129.362 65.5786 127.333C65.685 125.779 64.9485 124.357 64.4084 122.919C63.8683 121.481 63.5083 119.809 64.3021 118.473C65.0958 117.136 67.0434 116.483 68.099 115.192C69.3019 113.723 69.2037 111.609 70.2185 110.016C71.6423 107.801 74.6864 107.241 77.0923 106.005C80.21 104.404 84.1297 102.896 84.6535 99.5381L83.8515 98.6987Z" fill="#263238"/>
<path d="M92.9586 125.126C92.7622 125.421 91.0929 124.473 88.9816 124.768C86.8704 125.064 85.4956 126.37 85.2256 126.129C85.0947 126.028 85.2256 125.507 85.8557 124.901C86.6448 124.125 87.6851 123.625 88.8098 123.478C89.9278 123.327 91.0665 123.547 92.034 124.1C92.7623 124.504 93.0732 124.955 92.9586 125.126Z" fill="#263238"/>
<path d="M86.7188 140.306C86.6043 140.306 86.3997 139.98 85.9824 139.731C85.565 139.482 85.1641 139.443 85.1641 139.335C85.1641 139.226 85.6878 139.047 86.2524 139.397C86.8171 139.747 86.8334 140.298 86.7188 140.306Z" fill="#BF654E"/>
<path d="M122.957 137.881C122.9 135.332 120.74 133.217 120.282 130.676C119.897 128.546 120.437 126.385 120.715 124.24C121.3 118.956 120.274 113.624 117.76 108.879C115.246 104.133 111.349 100.173 106.534 97.4706C102.638 95.5228 98.4727 94.1047 94.161 93.2578C92.5126 92.7885 90.7856 92.6197 89.0711 92.7603C88.2137 92.8438 87.3939 93.1378 86.6923 93.6135C85.9907 94.0891 85.4315 94.7299 85.0696 95.473C83.0566 98.1235 82.2464 102.212 83.8503 105.103C86.1989 109.332 92.729 110.016 95.3885 114.081C98.2362 118.434 95.3312 124.473 97.6552 129.106C99.1282 132.059 101.297 132.953 102.467 136.023C103.064 137.578 102.181 141.278 103.081 142.7C104.365 144.729 105.536 146.866 107.729 147.962L107.688 157.577C113.53 155.65 123.244 149.618 122.957 137.881Z" fill="#263238"/>
<path d="M119.396 125.25C119.244 125.286 119.087 125.302 118.93 125.297C118.481 125.297 118.035 125.223 117.612 125.079C116.076 124.46 114.806 123.364 114.012 121.97C113.455 121.038 112.958 120.075 112.522 119.087C112.047 117.967 111.428 116.907 110.681 115.931C109.819 114.892 108.668 114.103 107.359 113.653C105.935 113.176 104.466 112.828 102.973 112.612C97.634 111.761 92.6343 109.562 88.4968 106.246C87.2514 105.248 86.1038 104.145 85.0681 102.95C84.6835 102.538 84.438 102.173 84.2498 101.955C84.151 101.84 84.066 101.715 83.9961 101.582C83.9961 101.582 84.4216 102.033 85.1908 102.842C86.2646 103.988 87.433 105.051 88.685 106.021C90.5397 107.458 92.5635 108.687 94.716 109.682C97.3498 110.903 100.156 111.756 103.046 112.216C104.567 112.437 106.063 112.794 107.514 113.28C108.889 113.766 110.093 114.606 110.992 115.705C111.748 116.713 112.372 117.804 112.85 118.954C113.267 119.934 113.74 120.891 114.265 121.823C115.01 123.186 116.206 124.278 117.67 124.932C118.224 125.122 118.807 125.229 119.396 125.25Z" fill="#455A64"/>
<path d="M119.315 113.234C119.105 112.78 118.856 112.343 118.571 111.928C117.671 110.875 116.45 110.113 115.077 109.744C114.143 109.455 113.176 109.272 112.196 109.2C111.132 109.122 109.995 109.106 108.784 109.052C107.506 109.016 106.237 108.839 105.003 108.523C103.67 108.139 102.451 107.463 101.444 106.549C100.471 105.643 99.5482 104.691 98.6776 103.697C97.8725 102.79 96.964 101.972 95.969 101.256C93.0784 99.2556 89.5481 98.2669 85.9774 98.4577C84.9627 98.5121 84.4144 98.6287 84.4062 98.5821C84.531 98.5296 84.6635 98.4956 84.799 98.481C85.1848 98.3983 85.5756 98.3385 85.9692 98.3023C87.415 98.162 88.8749 98.2328 90.2981 98.5121C92.4274 98.9109 94.4404 99.7436 96.1981 100.953C98.2439 102.29 99.7332 104.474 101.73 106.246C102.689 107.119 103.849 107.768 105.118 108.143C106.322 108.455 107.561 108.635 108.808 108.679C110.003 108.741 111.149 108.772 112.229 108.865C113.233 108.953 114.222 109.156 115.175 109.472C116.582 109.876 117.819 110.692 118.71 111.804C119.021 112.231 119.228 112.72 119.315 113.234Z" fill="white"/>
<path d="M119.067 162.769C118.86 162.872 118.63 162.925 118.396 162.925C117.758 162.965 117.12 162.853 116.539 162.598C115.682 162.225 114.909 161.697 114.264 161.044C113.483 160.257 112.809 159.379 112.259 158.432C111.255 156.712 110.668 154.8 110.541 152.836C110.492 152.243 110.492 151.648 110.541 151.056C110.547 150.837 110.594 150.621 110.68 150.419C110.753 150.419 110.639 151.343 110.811 152.813C111.018 154.721 111.625 156.571 112.595 158.253C113.491 159.96 114.894 161.381 116.629 162.342C117.389 162.683 118.229 162.83 119.067 162.769Z" fill="#263238"/>
<path d="M123.243 169.384C122.963 169.524 122.662 169.624 122.351 169.679C121.502 169.873 120.624 169.923 119.757 169.827C116.877 169.451 114.268 168.016 112.49 165.832C110.793 163.644 109.633 161.124 109.094 158.456C108.857 157.445 108.718 156.621 108.644 156.046C108.581 155.752 108.556 155.452 108.57 155.152C108.644 155.152 108.857 156.404 109.389 158.386C110 160.984 111.17 163.435 112.825 165.583C114.545 167.686 117.033 169.098 119.797 169.539C120.947 169.66 122.11 169.608 123.243 169.384Z" fill="#263238"/>
<path d="M129.182 159.233C129.078 159.297 128.965 159.346 128.846 159.38C128.625 159.458 128.29 159.583 127.848 159.722C126.617 160.142 125.325 160.378 124.018 160.422C123.097 160.431 122.184 160.261 121.334 159.925C120.343 159.52 119.527 158.807 119.018 157.904C118.744 157.409 118.596 156.861 118.585 156.302C118.585 155.714 118.76 155.137 119.092 154.639C119.419 154.107 119.919 153.69 120.516 153.45C120.824 153.317 121.159 153.249 121.498 153.249C121.837 153.249 122.171 153.317 122.48 153.45C123.099 153.712 123.595 154.183 123.871 154.771C124.008 155.06 124.07 155.376 124.053 155.692C124.036 156.008 123.94 156.316 123.773 156.59C123.448 157.098 122.965 157.498 122.39 157.733C121.876 157.967 121.321 158.112 120.753 158.16C118.77 158.332 116.795 157.751 115.262 156.543C114.254 155.732 113.491 154.681 113.053 153.497C112.936 153.178 112.848 152.85 112.791 152.517C112.768 152.399 112.768 152.278 112.791 152.16C112.832 152.16 112.906 152.634 113.241 153.442C113.724 154.568 114.498 155.56 115.491 156.326C116.979 157.444 118.866 157.968 120.753 157.787C121.288 157.767 121.81 157.631 122.281 157.39C122.752 157.149 123.159 156.809 123.47 156.396C123.591 156.161 123.658 155.904 123.668 155.642C123.678 155.38 123.629 155.12 123.526 154.877C123.422 154.634 123.266 154.415 123.068 154.234C122.869 154.052 122.633 153.912 122.373 153.823C121.847 153.631 121.266 153.629 120.738 153.817C120.211 154.004 119.774 154.369 119.509 154.841C119.229 155.274 119.075 155.77 119.062 156.278C119.049 156.785 119.178 157.287 119.436 157.733C119.897 158.567 120.64 159.23 121.547 159.614C122.349 159.942 123.211 160.116 124.084 160.127C125.369 160.109 126.644 159.918 127.873 159.559C128.3 159.421 128.738 159.312 129.182 159.233Z" fill="#263238"/>
<path d="M116.681 85.485C116.681 85.555 115.609 85.2518 113.874 85.2441C111.614 85.2276 109.39 85.7945 107.442 86.8841C105.516 88.0051 103.964 89.6223 102.966 91.5478C102.588 92.3668 102.257 93.2049 101.976 94.0584C101.962 93.8122 101.99 93.5656 102.058 93.3277C102.198 92.6756 102.412 92.0398 102.696 91.4312C103.643 89.3982 105.222 87.6893 107.221 86.5343C109.235 85.4118 111.55 84.8716 113.882 84.9798C114.581 85.0043 115.276 85.1008 115.953 85.2674C116.207 85.2997 116.453 85.3733 116.681 85.485Z" fill="#455A64"/>
<path d="M114.351 96.7011C114.286 96.7011 114.351 95.9938 114.294 94.8823C114.173 93.4384 113.726 92.0361 112.985 90.7705C112.225 89.5119 111.2 88.4163 109.973 87.5526C109.032 86.8841 108.337 86.5887 108.394 86.5266C109.027 86.6711 109.622 86.9354 110.145 87.3038C111.471 88.1293 112.571 89.2431 113.353 90.5528C114.134 91.8664 114.561 93.3429 114.597 94.8512C114.656 95.4774 114.572 96.1084 114.351 96.7011Z" fill="#455A64"/>
<path d="M96.3874 132.976C95.8736 132.855 95.3681 132.705 94.8735 132.526C93.657 132.208 92.3914 132.095 91.1338 132.191C89.8783 132.3 88.6534 132.621 87.5169 133.14C87.0602 133.39 86.5904 133.618 86.1094 133.824C86.4489 133.437 86.8698 133.122 87.345 132.899C88.4888 132.285 89.7576 131.912 91.0661 131.803C92.3746 131.695 93.6923 131.854 94.9308 132.269C95.4644 132.402 95.9613 132.644 96.3874 132.976Z" fill="#BF654E"/>
<path d="M96.3457 204.812C95.8711 200.149 95.8465 210.323 96.3457 204.812Z" fill="#C78976"/>
<path d="M128.144 202.784C127.915 197.537 126.769 186.36 120.779 180.017C113.586 172.431 105.108 173.185 99.6912 182.007C94.1676 191 96.7453 200.343 96.3443 204.812L103.046 257.441C103.046 257.441 74.3072 306.612 66.0586 310.522L79.1516 316.499C88.7176 312.721 121.311 278.972 130.509 262.136C134.322 255.187 128.373 208.038 128.144 202.784Z" fill="#C78976"/>
<path d="M95.9453 221.22L131.419 214.435C131.419 214.435 128.498 193.371 124.594 183.134C121.55 175.167 112.107 172.174 112.107 172.174L96.51 181.09C96.51 181.09 93.8423 193.075 94.0551 204.043C94.2678 215.01 95.9453 221.22 95.9453 221.22Z" fill="#2D2E4A"/>
<path d="M115.527 175.727C115.329 175.777 115.126 175.809 114.922 175.82L113.187 176.006C111.067 176.217 108.966 176.579 106.902 177.087C103.828 177.794 101.057 179.381 98.9647 181.634C96.6734 184.214 95.3559 187.852 94.914 191.738C94.4721 195.625 94.914 199.371 95.0204 202.768L95.4786 211.8C95.5932 214.334 95.6832 216.401 95.7487 217.886C95.7487 218.58 95.765 219.132 95.7978 219.542C95.8174 219.735 95.8174 219.931 95.7978 220.125C95.7522 219.936 95.7275 219.743 95.7241 219.549C95.7241 219.13 95.6423 218.586 95.5932 217.894C95.495 216.417 95.3559 214.349 95.184 211.808C95.0122 209.266 94.8404 206.172 94.6358 202.776C94.4312 199.379 93.9893 195.64 94.4967 191.692C95.004 187.743 96.2969 184.043 98.6701 181.401C99.795 180.161 101.148 179.126 102.663 178.346C103.98 177.669 105.379 177.147 106.829 176.791C108.912 176.298 111.037 175.975 113.179 175.828C113.94 175.765 114.521 175.734 114.922 175.711C115.124 175.7 115.326 175.705 115.527 175.727Z" fill="#263238"/>
<path d="M121.23 227.773C121.353 228.063 121.459 228.359 121.55 228.659C121.672 229 121.831 229.328 122.024 229.638C122.237 229.988 122.63 230.33 122.949 230.796C123.717 231.863 124.244 233.07 124.496 234.341C124.645 235.091 124.694 235.856 124.643 236.618C124.594 237.396 124.438 238.212 124.307 239.02C124.16 239.789 124.103 240.571 124.135 241.352C124.189 242.075 124.381 242.784 124.7 243.443C125.279 244.561 126.083 245.562 127.065 246.389C127.729 246.944 128.426 247.463 129.152 247.943C129.446 248.109 129.72 248.304 129.97 248.526C129.662 248.411 129.371 248.26 129.103 248.075C128.33 247.623 127.594 247.117 126.901 246.56C125.854 245.736 124.999 244.714 124.389 243.559C124.033 242.863 123.819 242.109 123.759 241.336C123.719 240.519 123.777 239.7 123.931 238.896C124.062 238.08 124.217 237.287 124.266 236.525C124.324 235.795 124.285 235.062 124.152 234.341C123.926 233.113 123.444 231.94 122.736 230.89C122.45 230.439 122.082 230.112 121.852 229.685C121.674 229.352 121.531 229.003 121.427 228.643C121.312 228.365 121.245 228.071 121.23 227.773Z" fill="#263238"/>
<path d="M123.979 244.826C123.509 244.05 122.961 243.318 122.342 242.642C121.634 241.944 120.803 241.368 119.887 240.94C119.346 240.696 118.778 240.508 118.193 240.38C117.89 240.305 117.581 240.255 117.269 240.233C116.974 240.233 116.876 240.318 116.868 240.606C117.028 241.661 117.527 242.644 118.295 243.421C119.064 244.198 120.065 244.732 121.164 244.951C122.094 245.115 123.048 245.115 123.979 244.951C123.759 245.088 123.51 245.178 123.251 245.215C122.546 245.365 121.818 245.384 121.107 245.269C119.905 245.07 118.804 244.509 117.964 243.669C117.124 242.829 116.591 241.755 116.442 240.606C116.433 240.389 116.512 240.177 116.663 240.015C116.748 239.945 116.847 239.892 116.954 239.86C117.061 239.828 117.173 239.817 117.285 239.828C117.625 239.857 117.961 239.911 118.292 239.992C118.904 240.131 119.497 240.337 120.059 240.606C121 241.082 121.839 241.723 122.53 242.494C123.009 242.997 123.409 243.562 123.717 244.173C123.843 244.375 123.931 244.596 123.979 244.826Z" fill="#263238"/>
<path d="M126.207 242.945C127.016 242.65 127.75 242.194 128.359 241.608C129.023 240.998 129.479 240.213 129.668 239.354C129.85 238.299 129.585 237.218 128.932 236.346C128.837 236.225 128.736 236.108 128.629 235.996H128.94C128.139 236.699 127.421 237.48 126.796 238.328C126.333 239.033 126.053 239.832 125.978 240.66C125.885 241.424 125.977 242.197 126.248 242.922C126.088 242.768 125.973 242.578 125.912 242.37C125.71 241.811 125.632 241.218 125.683 240.629C125.733 239.748 126.014 238.893 126.501 238.142C127.121 237.248 127.849 236.426 128.67 235.693L128.825 235.546L128.973 235.701C129.093 235.824 129.205 235.954 129.308 236.09C129.667 236.563 129.921 237.1 130.055 237.67C130.188 238.239 130.199 238.828 130.086 239.401C129.869 240.325 129.35 241.16 128.604 241.787C127.991 242.451 127.133 242.866 126.207 242.945Z" fill="#263238"/>
<path d="M122.605 239.269C122.605 239.269 122.72 238.997 122.85 238.492C123.034 237.787 123.034 237.051 122.85 236.346C122.581 235.307 121.988 234.37 121.148 233.657C120.654 233.233 120.104 232.873 119.512 232.584C119.201 232.427 118.882 232.287 118.554 232.164L118.039 231.986C117.918 231.927 117.781 231.905 117.646 231.924C117.605 231.924 117.556 232.032 117.564 232.188C117.575 232.352 117.597 232.516 117.63 232.677C117.688 233.01 117.764 233.34 117.859 233.665C118.037 234.28 118.253 234.884 118.505 235.476C118.751 236.051 119.004 236.587 119.233 237.085C119.426 237.551 119.67 237.997 119.962 238.414C120.175 238.705 120.45 238.949 120.771 239.13C121.091 239.311 121.449 239.424 121.819 239.463C122.094 239.472 122.365 239.402 122.597 239.261C122.597 239.261 122.425 239.595 121.819 239.619C121.411 239.608 121.01 239.51 120.647 239.331C120.284 239.152 119.968 238.897 119.724 238.585C119.398 238.162 119.124 237.706 118.906 237.225C118.661 236.727 118.391 236.199 118.137 235.623C117.866 235.018 117.633 234.398 117.441 233.766C117.344 233.43 117.265 233.09 117.204 232.747C117.165 232.565 117.141 232.381 117.13 232.196C117.113 232.068 117.137 231.938 117.198 231.823C117.259 231.708 117.356 231.613 117.474 231.55C117.705 231.488 117.952 231.507 118.17 231.605C118.35 231.659 118.522 231.721 118.702 231.791C119.044 231.919 119.378 232.066 119.7 232.234C120.32 232.543 120.892 232.93 121.402 233.385C122.284 234.158 122.888 235.175 123.129 236.292C123.29 237.039 123.245 237.813 122.998 238.538C122.932 238.809 122.797 239.059 122.605 239.269Z" fill="#263238"/>
<path d="M126.286 236.074C126.734 235.881 127.121 235.58 127.408 235.201C127.695 234.822 127.873 234.378 127.923 233.913C128.206 232.939 128.339 231.931 128.316 230.921C128.298 230.323 128.23 229.728 128.111 229.141C128.046 228.838 127.972 228.535 127.874 228.231C127.799 227.931 127.678 227.643 127.514 227.376C127.317 227.151 127.227 227.159 127.031 227.423C126.835 227.687 126.679 227.959 126.532 228.2C126.242 228.728 126.004 229.28 125.82 229.848C125.521 230.82 125.378 231.829 125.394 232.841C125.456 233.777 125.595 234.708 125.812 235.623C125.663 235.407 125.555 235.168 125.492 234.916C125.267 234.246 125.132 233.551 125.092 232.848C125.026 231.801 125.145 230.75 125.443 229.739C125.623 229.144 125.862 228.567 126.155 228.014C126.314 227.72 126.489 227.435 126.679 227.159C126.737 227.061 126.817 226.976 126.913 226.91C127.009 226.845 127.119 226.799 127.235 226.778C127.36 226.774 127.482 226.802 127.592 226.858C127.701 226.914 127.793 226.996 127.857 227.097C128.855 229.266 128.981 231.708 128.209 233.96C128.029 234.66 127.626 235.289 127.055 235.763C126.851 235.958 126.575 236.069 126.286 236.074Z" fill="#263238"/>
<path d="M123.629 231.247C123.828 230.279 123.855 229.286 123.71 228.309C123.544 227.255 123.157 226.243 122.573 225.332C122.254 224.811 121.894 224.275 121.501 223.723L121.198 223.311C121.118 223.184 121.025 223.064 120.92 222.954C120.846 222.915 120.83 222.915 120.707 223.008C120.596 223.13 120.492 223.257 120.396 223.389C119.63 224.461 119.248 225.74 119.308 227.034C119.332 227.592 119.448 228.143 119.652 228.667C119.851 229.121 120.127 229.541 120.47 229.91C120.968 230.451 121.554 230.912 122.205 231.278C122.453 231.403 122.688 231.548 122.908 231.714C122.62 231.662 122.343 231.562 122.09 231.418C121.385 231.087 120.748 230.64 120.208 230.097C118.735 228.768 118.26 225.612 120.028 223.164C120.14 223.008 120.263 222.86 120.396 222.721C120.487 222.629 120.603 222.564 120.732 222.534C120.808 222.522 120.885 222.525 120.96 222.542C121.034 222.559 121.104 222.591 121.165 222.635C121.306 222.771 121.43 222.923 121.534 223.086L121.828 223.506C122.221 224.058 122.581 224.609 122.9 225.153C123.202 225.668 123.456 226.207 123.661 226.762C123.829 227.252 123.941 227.758 123.997 228.27C124.087 229.009 124.053 229.757 123.899 230.486C123.868 230.755 123.776 231.015 123.629 231.247Z" fill="#263238"/>
<path d="M127.981 239.168C127.955 239.869 127.78 240.559 127.467 241.195C127.153 241.831 126.707 242.4 126.156 242.868C126.782 241.642 127.39 240.409 127.981 239.168Z" fill="#263238"/>
<path d="M124.077 245.067C123.213 245.027 122.386 244.722 121.72 244.197C120.989 243.787 120.358 243.233 119.871 242.572C120.62 242.919 121.321 243.353 121.958 243.862C123.071 244.601 124.102 244.958 124.077 245.067Z" fill="#263238"/>
<path d="M126.893 230.913C127.099 231.767 127.099 232.655 126.893 233.509C126.824 234.38 126.544 235.223 126.074 235.973C126.147 235.119 126.29 234.272 126.5 233.439C126.562 232.589 126.693 231.744 126.893 230.913Z" fill="#263238"/>
<path d="M122.442 239.315C122.01 238.596 121.622 237.854 121.28 237.092C120.815 236.394 120.394 235.67 120.02 234.924C121.388 236.044 122.264 237.611 122.474 239.315H122.442Z" fill="#263238"/>
<path d="M117.253 228.62C117.253 228.573 117.49 228.488 117.736 228.744C117.809 228.821 117.857 228.916 117.874 229.018C117.892 229.12 117.878 229.225 117.834 229.32C117.784 229.44 117.697 229.543 117.585 229.615C117.472 229.687 117.339 229.725 117.204 229.724C117.066 229.717 116.935 229.671 116.825 229.592C116.716 229.513 116.634 229.404 116.59 229.281C116.558 229.183 116.554 229.079 116.578 228.979C116.603 228.879 116.655 228.788 116.729 228.713C116.991 228.48 117.236 228.573 117.22 228.62C117.204 228.667 117.056 228.721 116.966 228.892C116.944 228.932 116.933 228.976 116.933 229.02C116.933 229.065 116.944 229.109 116.966 229.149C116.988 229.196 117.024 229.237 117.068 229.267C117.113 229.298 117.165 229.316 117.22 229.32C117.275 229.317 117.329 229.302 117.376 229.275C117.423 229.248 117.463 229.21 117.49 229.164C117.51 229.124 117.521 229.08 117.521 229.036C117.521 228.992 117.51 228.948 117.49 228.908C117.408 228.729 117.253 228.674 117.253 228.62Z" fill="#263238"/>
<path d="M129.249 233.354C129.249 233.307 129.486 233.229 129.732 233.478C129.805 233.555 129.853 233.65 129.87 233.752C129.888 233.854 129.874 233.959 129.83 234.053C129.781 234.174 129.695 234.277 129.582 234.35C129.469 234.422 129.336 234.46 129.2 234.457C129.062 234.451 128.93 234.406 128.82 234.327C128.711 234.248 128.629 234.139 128.586 234.014C128.554 233.917 128.55 233.812 128.574 233.713C128.599 233.613 128.651 233.521 128.725 233.447C128.987 233.214 129.233 233.307 129.216 233.354C129.2 233.4 129.052 233.455 128.962 233.626C128.94 233.665 128.929 233.709 128.929 233.754C128.929 233.799 128.94 233.843 128.962 233.882C128.984 233.93 129.02 233.971 129.064 234.001C129.109 234.031 129.162 234.049 129.216 234.053C129.271 234.051 129.325 234.036 129.372 234.009C129.419 233.981 129.459 233.943 129.486 233.898C129.506 233.858 129.517 233.814 129.517 233.77C129.517 233.725 129.506 233.681 129.486 233.641C129.404 233.463 129.249 233.408 129.249 233.354Z" fill="#263238"/>
<path d="M122.147 247.337C122.147 247.29 122.564 247.197 122.965 247.648C123.082 247.782 123.158 247.945 123.185 248.117C123.213 248.289 123.19 248.466 123.121 248.627C123.031 248.827 122.882 248.998 122.691 249.118C122.501 249.238 122.277 249.302 122.049 249.303C121.82 249.29 121.601 249.213 121.419 249.082C121.237 248.95 121.1 248.77 121.026 248.565C120.965 248.401 120.952 248.225 120.99 248.055C121.028 247.885 121.113 247.728 121.238 247.601C121.672 247.174 122.106 247.29 122.057 247.329C122.008 247.368 121.705 247.415 121.451 247.772C121.382 247.867 121.338 247.978 121.323 248.093C121.309 248.208 121.325 248.325 121.369 248.433C121.417 248.567 121.506 248.684 121.626 248.769C121.745 248.853 121.889 248.901 122.038 248.905C122.187 248.909 122.334 248.87 122.459 248.793C122.584 248.715 122.68 248.603 122.736 248.472C122.795 248.371 122.825 248.257 122.825 248.141C122.825 248.026 122.795 247.912 122.736 247.811C122.482 247.438 122.13 247.391 122.147 247.337Z" fill="#263238"/>
<path d="M122.705 240.38C122.705 240.334 122.845 240.256 123.008 240.38C123.06 240.426 123.095 240.485 123.11 240.551C123.124 240.616 123.117 240.684 123.09 240.746C123.059 240.825 123.003 240.893 122.93 240.94C122.857 240.987 122.77 241.012 122.681 241.01C122.592 241.008 122.505 240.979 122.435 240.927C122.364 240.876 122.313 240.804 122.288 240.722C122.266 240.659 122.264 240.591 122.281 240.526C122.298 240.461 122.335 240.403 122.386 240.357C122.566 240.225 122.705 240.31 122.689 240.357C122.673 240.404 122.624 240.466 122.624 240.536C122.624 240.606 122.689 240.598 122.689 240.613C122.689 240.629 122.763 240.613 122.763 240.543C122.763 240.473 122.705 240.435 122.705 240.38Z" fill="#263238"/>
<path d="M125.585 222.962C125.585 222.915 126.1 222.814 126.583 223.373C126.721 223.537 126.81 223.734 126.84 223.942C126.87 224.15 126.841 224.362 126.755 224.555C126.656 224.801 126.48 225.013 126.249 225.159C126.019 225.306 125.746 225.381 125.468 225.373C125.191 225.365 124.923 225.275 124.702 225.116C124.481 224.957 124.317 224.736 124.234 224.485C124.161 224.286 124.145 224.073 124.188 223.866C124.231 223.66 124.332 223.468 124.48 223.311C124.995 222.783 125.535 222.915 125.503 222.954C125.47 222.993 125.061 223.024 124.684 223.49C124.588 223.612 124.527 223.756 124.507 223.907C124.487 224.058 124.508 224.212 124.57 224.353C124.632 224.528 124.75 224.681 124.906 224.792C125.063 224.902 125.251 224.964 125.446 224.97C125.641 224.976 125.833 224.925 125.997 224.825C126.16 224.724 126.288 224.578 126.362 224.407C126.431 224.269 126.462 224.117 126.451 223.965C126.441 223.813 126.391 223.665 126.305 223.537C126.018 223.063 125.568 223.063 125.585 222.962Z" fill="#263238"/>
<path d="M39.3743 314.82C39.3743 314.82 40.2499 309.83 43.4086 310.063C46.5673 310.296 46.9437 310.514 48.9567 309.496C50.9698 308.477 52.23 305.609 57.5408 305.524C62.8516 305.438 68.138 307.677 71.1657 306.55L82.2702 314.82C82.2702 314.82 72.0495 323.199 68.768 324.45C65.4866 325.702 57.6636 326.005 56.4034 325.585C55.1432 325.165 46.5836 323.199 45.6753 322.748C44.767 322.297 37.4922 319.126 37.3531 318.084C37.214 317.043 38.6624 316.157 39.7016 316.39C40.7409 316.623 46.1663 317.944 48.703 316.685C49.7366 316.096 50.834 315.614 51.9763 315.247L39.3743 314.82Z" fill="#C78976"/>
<path d="M24.0259 218.952C23.4739 218.303 22.7636 217.83 21.9904 217.596C21.2393 217.34 20.4544 217.33 19.7438 217.569C19.3726 217.71 19.0397 217.933 18.7652 218.224C18.4907 218.515 18.2802 218.867 18.1463 219.261C17.9904 219.731 17.9485 220.246 18.0242 220.761C17.6168 220.537 17.1771 220.404 16.7351 220.373C16.3271 220.35 15.927 220.414 15.5586 220.562C15.1903 220.71 14.8613 220.939 14.5914 221.234C14.0999 221.814 13.8085 222.562 13.758 223.372C13.6723 224.192 13.8308 225.045 14.212 225.815C14.7114 226.789 15.4787 227.595 16.4002 228.116C17.3929 228.604 18.4585 228.843 19.5078 228.813C21.2406 228.813 23.4889 228.765 23.4889 228.765C23.4889 228.765 24.0804 226.726 24.7414 225.094C25.1692 224.116 25.3593 223.021 25.2956 221.899C25.1715 220.828 24.726 219.794 24.0259 218.952Z" fill="#EC87CF"/>
</svg>
