<svg width="66" height="66" viewBox="0 0 66 66" fill="none" xmlns="http://www.w3.org/2000/svg">
<path d="M5.69159 49.056H9.64359C10.1769 49.056 10.6676 49.1893 11.1156 49.456C11.5743 49.7227 11.9369 50.0853 12.2036 50.544C12.4703 50.992 12.6036 51.4827 12.6036 52.016C12.6036 52.5387 12.4756 53.024 12.2196 53.472C11.9636 53.92 11.6169 54.2773 11.1796 54.544L12.6196 58H10.8276L9.56359 54.976H7.35559V58H5.69159V49.056ZM9.64359 53.312C10.0063 53.312 10.3103 53.1893 10.5556 52.944C10.8116 52.688 10.9396 52.3787 10.9396 52.016C10.9396 51.6533 10.8116 51.3493 10.5556 51.104C10.3103 50.848 10.0063 50.72 9.64359 50.72H7.35559V53.312H9.64359ZM16.6135 49.056H23.1095V50.72H18.2775V52.688H20.6935V54.352H18.2775V56.336H23.1095V58H16.6135V49.056ZM30.5148 58C29.8108 58 29.1228 57.8667 28.4508 57.6C27.7895 57.3333 27.2082 56.9227 26.7068 56.368L27.9548 55.248C28.2748 55.6107 28.6588 55.8827 29.1068 56.064C29.5655 56.2453 30.0348 56.336 30.5148 56.336C30.9095 56.336 31.2722 56.2773 31.6028 56.16C32.0722 55.968 32.3122 55.744 32.3228 55.488C32.3335 55.168 32.2855 54.928 32.1788 54.768C32.0722 54.608 31.8748 54.4907 31.5868 54.416C31.2988 54.3307 30.8455 54.256 30.2268 54.192C29.5762 54.1173 29.0215 54.0213 28.5628 53.904C28.1042 53.776 27.6988 53.5307 27.3468 53.168C27.0055 52.7947 26.8348 52.256 26.8348 51.552C26.8348 51.1147 26.9522 50.72 27.1868 50.368C27.4322 50.016 27.7735 49.7333 28.2108 49.52C28.8295 49.2107 29.5762 49.056 30.4508 49.056C31.1015 49.056 31.7362 49.1467 32.3548 49.328C32.9842 49.5093 33.5228 49.7707 33.9708 50.112L32.9628 51.44C32.6535 51.2053 32.2748 51.0293 31.8268 50.912C31.3788 50.784 30.9202 50.72 30.4508 50.72C29.8322 50.72 29.3308 50.816 28.9468 51.008C28.6482 51.1573 28.4988 51.3387 28.4988 51.552C28.4988 51.776 28.5415 51.9467 28.6268 52.064C28.7122 52.1707 28.8828 52.2613 29.1388 52.336C29.4055 52.4107 29.8268 52.48 30.4028 52.544C31.0535 52.608 31.6242 52.7093 32.1148 52.848C32.6055 52.9867 33.0375 53.264 33.4108 53.68C33.7948 54.0853 33.9868 54.6773 33.9868 55.456C33.9868 55.9573 33.8268 56.4107 33.5068 56.816C33.1868 57.2107 32.7442 57.5093 32.1788 57.712C31.6882 57.904 31.1335 58 30.5148 58ZM37.9885 49.056H39.6525V58H37.9885V49.056ZM44.1291 49.056H45.7931V56.336H50.0811V58H44.1291V49.056ZM54.6196 54.336L51.4516 49.056H53.3876L55.4516 52.496L57.5156 49.056H59.4676L56.2836 54.336V58H54.6196V54.336Z" fill="#EEEEEE"/>
<path d="M0.877029 5.37074C1.86086 3.32027 4.08361 1.26981 6.01484 0.678995C7.94607 0.0534292 11.1526 0.43572 13.4118 1.51308C15.1609 2.34717 20.6631 6.20483 23.9061 8.84611L25.4365 10.0972L25.3636 7.56022C25.3272 5.26648 25.4 5.0232 26.0195 5.0232C26.9669 5.0232 27.2584 6.20483 27.4042 10.2015L27.5135 13.3293L25.8009 13.5726C24.8899 13.7116 22.9951 13.8854 21.6105 13.9549C19.1691 14.0592 19.1326 14.0592 19.1326 13.1903C19.1326 12.391 19.2784 12.3215 21.4647 12.0782C22.74 11.9392 23.8332 11.7654 23.9425 11.6612C24.0518 11.5916 22.6672 10.3753 20.8817 8.95037C14.1042 3.5983 11.7721 2.31242 8.71127 2.31242C6.12415 2.31242 4.37511 3.28552 2.99045 5.475C1.02278 8.70709 2.00662 13.1903 5.10388 15.1365C5.90552 15.6578 6.56142 16.3181 6.56142 16.6657C6.56142 17.0132 5.90552 17.6735 5.10388 18.1948C3.09977 19.446 2.04306 21.4964 2.00662 24.1377C1.97018 29.6983 7.29018 32.6871 12.5737 30.1501C16.0354 28.4472 22.5578 23.3036 32.2505 14.5805C39.7932 7.8035 45.8055 3.18126 49.34 1.47833C51.5263 0.435719 54.7329 0.0881828 56.6642 0.678995C59.9436 1.72161 62.6765 5.475 62.6765 8.98512C62.6765 11.6264 62.057 13.3293 60.3809 15.1365L58.9598 16.6657L60.3809 18.1948C65.5187 23.7554 61.5105 33.0347 54.0406 32.9999C51.9272 32.9651 50.1781 32.4091 47.6274 30.9147C45.9513 29.9763 44.5666 28.9337 38.5179 24.242L37.0968 23.1646L37.3518 25.3889C37.534 27.196 37.4976 27.7521 37.0603 28.0649C36.6231 28.4124 36.4044 28.4124 35.9672 27.9954C35.3477 27.3698 34.7283 20.5928 35.2748 20.0715C35.457 19.8978 37.3518 19.6545 39.4653 19.5502C42.9269 19.3765 43.3642 19.4112 43.5828 19.9325C43.9472 20.8361 43.3642 21.1489 40.8135 21.4269L38.4814 21.6355L40.1211 23.0256C43.0726 25.5626 48.2469 29.2465 50.1052 30.1501C55.3888 32.6871 60.6359 29.6983 60.6724 24.1377C60.6724 21.4617 59.7614 19.6892 57.6844 18.2991C56.8099 17.7083 56.1176 16.9785 56.1176 16.6657C56.1176 16.3529 56.8099 15.6231 57.6844 15.0323C59.7614 13.6421 60.6724 11.8697 60.6724 9.19364C60.6359 3.5983 55.3888 0.609488 50.1052 3.21601C46.6436 4.88419 40.1211 10.0277 30.4285 18.7509C22.8858 25.5279 16.8735 30.1501 13.339 31.853C11.1526 32.8956 7.94607 33.2432 6.01484 32.6524C5.24963 32.4091 3.97429 31.6445 3.17265 30.9494C-0.835575 27.5088 -1.09064 21.4617 2.66251 17.8126L3.7921 16.6657L2.66251 15.5536C-0.0339279 12.8775 -0.762699 8.70709 0.877029 5.37074Z" fill="#EEEEEE"/>
<path d="M3.90142 23.1646C4.52087 22.5738 5.21321 23.0604 5.8691 24.6243C6.6343 26.362 7.65457 27.0918 9.33074 27.0918C10.4603 27.0918 10.934 28.0649 10.0595 28.6557C9.33074 29.177 7.3995 28.8642 6.01485 27.9954C4.52087 27.057 3.13622 23.8945 3.90142 23.1646Z" fill="#EEEEEE"/>
<path d="M52.6924 4.36288C53.3483 3.70256 54.7694 3.84157 56.5548 4.71041C57.7937 5.30123 58.9962 7.17792 59.1055 8.70708C59.2148 9.68019 59.0691 9.88871 58.4132 9.99297C57.7573 10.0972 57.5387 9.85396 57.2107 8.70708C56.7735 7.10842 55.3524 5.89204 53.9313 5.89204C52.5466 5.89204 51.8907 5.0927 52.6924 4.36288Z" fill="#EEEEEE"/>
</svg>
